<?xml version="1.0" encoding="utf-8"?>
<!-- Generator: Adobe Illustrator 28.1.0, SVG Export Plug-In . SVG Version: 6.00 Build 0)  -->
<svg version="1.1" id="Ebene_1" xmlns="http://www.w3.org/2000/svg" xmlns:xlink="http://www.w3.org/1999/xlink" x="0px" y="0px"
	 width="1000px" height="400px" viewBox="0 0 1000 400" style="enable-background:new 0 0 1000 400;" xml:space="preserve">
<style type="text/css">
	.st0{display:none;}
	.st1{fill:#F87700;}
	.st2{fill:#6851A9;}
	.st3{fill-rule:evenodd;clip-rule:evenodd;fill:#F87700;}
</style>
<g id="hilfslinien" class="st0">
</g>
<g id="logo">
	<g>
		<path class="st1" d="M118,119c1.3-0.3,2.1-0.5,3.4-0.9l6.5,3.8c15.6,9.2,25.6,31.4,36.2,54.8c8.2,18.1,17.4,38.6,26.9,44.2
			l6.5,3.8c0.3,1.3,0.5,2.1,0.9,3.4l-7.6,12.9c-1.3,0.3-2.1,0.5-3.4,0.9l-6.5-3.8c-14.9-8.8-24.7-30.3-35-53.2
			c-8.4-18.7-18-39.8-28.2-45.8l-6.5-3.8c-0.3-1.3-0.5-2.1-0.9-3.4L118,119z"/>
		<path class="st2" d="M197.1,117.8l7.6,12.9c-0.3,1.3-0.5,2.1-0.9,3.4l-6.5,3.8c-10,5.9-18.8,27.3-26.5,46.1
			c-9.5,23.2-18.5,45.2-33.6,54.1l-6.5,3.8c-1.3-0.3-2.1-0.5-3.4-0.9l-7.6-12.9c0.3-1.3,0.5-2.1,0.9-3.4l6.5-3.8
			c9.3-5.5,17.8-26.2,25.3-44.5c9.8-23.9,19-46.4,34.8-55.8l6.5-3.8C195,117.2,195.7,117.4,197.1,117.8z"/>
		<path class="st2" d="M131,158c9.6,0,19.4,2.1,28.9,6.2l9.6,4.2l-8.5,19.3l-9.6-4.2c-16-7-32.5-5.8-45.2,3.4l-6.5,4.7
			c-1.4-0.2-2.1-0.3-3.5-0.6l-9.4-13c0.2-1.4,0.3-2.1,0.6-3.5l6.5-4.7C104.8,162,117.7,158,131,158z"/>
		<path class="st2" d="M218.6,151.8l10,12.6c-0.2,1.4-0.2,2.1-0.4,3.5l-6.3,5c-20.5,16.3-44.3,21-65.3,13l-9.6-4.3l7.4-19.1l9.8,3.8
			c13.8,5.3,30.1,1.8,44.6-9.8l6.3-5C216.4,151.5,217.2,151.6,218.6,151.8z"/>
		<path class="st3" d="M128.7,179.1c1.9-0.1,3.5-0.1,4.8,0c2.1,0.1,3.6,0.3,3.9,0.4c1.4,0.2,1.4,0.2,2.1,0.4c0.1,0,0.7,0.2,0.9,0.4
			c0.9,0.6,1.7,1.5,2.3,2.4l3.8,6.1l0.5,0.7l-0.1,0.3c0-0.1,2.1-0.7,2.2-0.8l7.3-4.8c14.9-9.8,41.5-6.6,54.4,2.8l6.5,4.7
			c1.4-0.2,2.1-0.3,3.5-0.6l9.4-13c-0.2-1.4-0.3-2.1-0.6-3.5l-6.5-4.7c-10.9-7.9-27.1-12.7-43.4-12.7c-12.5,0-24.9,2.9-34.9,9.5
			l-6.1,4c-0.8,0.5-1.6,1-2.4,1.6l-0.3,0.2l0,0C132.9,174.6,130.5,177,128.7,179.1z"/>
	</g>
</g>
<g id="RZ_Logo">
	<g>
		<path d="M274.8,167.8l2.8-2.8H289l3.2,2.2l18.9,46.3l18.8-46.3l3.2-2.2h11.3l2.8,2.8v3.9l-26.2,61l-3.4,2.2h-13.3l-3.4-2.2
			l-26.2-61v-3.9H274.8z"/>
		<path d="M367.8,154.6c-6.3,0-11.8-4.6-11.8-11.6s5.5-11.6,11.8-11.6s11.8,4.6,11.8,11.6S374.1,154.6,367.8,154.6z M373.8,235
			h-11.9l-2.8-2.8v-64.4l2.8-2.8h11.9l2.8,2.8v64.4L373.8,235z"/>
		<path d="M429.8,237.8c-22.8,0-37.1-16-37.1-37.8s14.3-37.8,35.7-37.8c20.6,0,34.3,14.8,34.3,35v6.7l-2.8,2.8h-49.3
			c1.7,8.4,8.8,14.3,19.2,14.3c7.8,0,12.9-2.9,16.1-6.7l3.9-0.8l9.2,6.3l0.8,3.9C454.1,232.3,444.5,237.8,429.8,237.8z M410.6,192.7
			h35c-1.4-9.7-8.1-14.4-17.2-14.4C419.1,178.3,412.1,183.1,410.6,192.7z"/>
		<path d="M481.6,134.2h11.9l2.8,2.8v95.2l-2.8,2.8h-11.8l-2.9-2.8V137L481.6,134.2z"/>
		<path d="M565.6,134.9l1.7,3.4l-3.8,10.2l-3.4,1.4c-3.1-1.5-6.4-2.4-9.7-2.4c-5.6,0-9.4,3.4-9.4,10.1v7.4h18.2l2.8,2.8v10.5
			l-2.8,2.8H541v51.1l-2.8,2.8h-11.9l-2.8-2.8v-51.1h-11.2l-2.8-2.8v-10.5l2.8-2.8h11.2v-8.4c0-16.1,10.6-25.2,26-25.2
			C555.4,131.4,560.1,132.4,565.6,134.9z"/>
		<path d="M569.1,214.4c0-14.3,10.6-23.2,31.1-23.2c5.5,0,10.5,0.8,15,2.2v-3.2c0-7.7-6.6-11.9-14.7-11.9c-7.7,0-12.7,3.2-15.8,6.7
			l-3.9,0.8l-8.1-6.2l-0.8-3.9c6-7.8,15.3-13.6,29.7-13.6c20.4,0,31.2,12.5,31.2,27.7v23.5c0,3.4,2.4,5.5,6,5.5h1.4l2.8,2.8v10.5
			l-2.8,2.8H636c-6.3,0-11.5-2-15.1-5.7c-5.3,5.3-13,8.5-22.7,8.5C580.6,237.8,569.1,228.8,569.1,214.4z M588,154.4
			c-5.5,0-9.8-3.8-9.8-9.7s4.3-9.7,9.8-9.7s9.8,3.8,9.8,9.7C597.8,150.6,593.4,154.4,588,154.4z M598.1,221.6
			c11.8,0,17.1-5.3,17.1-12.6v-1.3c-4.1-1.4-9-2.4-15-2.4c-9.4,0-13.9,3.1-13.9,8.5C586.3,218.9,591.2,221.6,598.1,221.6z
			 M615.7,154.4c-5.5,0-9.8-3.8-9.8-9.7s4.3-9.7,9.8-9.7s9.8,3.8,9.8,9.7C625.5,150.6,621.2,154.4,615.7,154.4z"/>
		<path d="M656.9,134.2h11.9l2.8,2.8v95.2l-2.8,2.8H657l-2.9-2.8V137L656.9,134.2z"/>
		<path d="M697.5,213.2v-32.1h-11.2l-2.8-2.8v-10.5l2.8-2.8h11.2v-18.2l2.8-2.8h11.9l2.8,2.8V165h18.2l2.8,2.8v10.5l-2.8,2.8H715
			v31.1c0,6.3,3.5,9.5,8.4,9.5c2.5,0,5-0.7,7.6-2l3.4,1.4l3.1,9.9l-1.7,3.4c-5,2.2-9.1,3.4-14.1,3.4
			C707.5,237.8,697.5,229.7,697.5,213.2z"/>
		<path d="M760,154.6c-6.3,0-11.8-4.6-11.8-11.6s5.5-11.6,11.8-11.6s11.8,4.6,11.8,11.6S766.3,154.6,760,154.6z M766.1,235h-11.9
			l-2.8-2.8v-64.4l2.8-2.8h11.9l2.8,2.8v64.4L766.1,235z"/>
		<path d="M832.1,165.4l8.3-10.2h11.2l2.8,2.8v10.5l-2.8,2.8H840c4.2,4.6,6.6,10.6,6.6,17.5c0,15.3-11.8,26.6-29.3,26.6
			c-3.8,0-7.3-0.6-10.4-1.5c-2.4,0.7-4.1,2.2-4.1,4.5c0,2.9,3.1,4.1,8,4.2l19.7,0.8c16.1,0.7,23.8,9.1,23.8,20.9
			c0,14.6-10.2,24.4-35.8,24.4c-26.6,0-35.7-8.3-35.7-20c0-5.9,3.2-10.9,9-14.4c-3.4-2.8-5.3-7-5.3-12c0-5.9,3.2-11.2,9.4-14.6
			c-5-4.8-7.8-11.2-7.8-18.8c0-15.3,11.8-26.6,29.3-26.6C822.9,162.2,827.9,163.3,832.1,165.4z M818.6,253.2
			c13.4,0,17.9-2.7,17.9-7.3c0-3.8-4.2-5.6-10.5-5.9l-18.8-0.8c-0.8,0-1.7-0.1-2.4-0.1c-3.2,1.3-5,3.4-5,6.3
			C799.8,250.3,805.1,253.2,818.6,253.2z M805.3,188.8c0,6.6,5,11.5,12,11.5s12-4.9,12-11.5s-5-11.5-12-11.5
			S805.3,182.2,805.3,188.8z"/>
		<path d="M874.8,236.4c-6.7,0-12-4.8-12-12.3s5.3-12.3,12-12.3s12,4.8,12,12.3S881.6,236.4,874.8,236.4z"/>
	</g>
</g>
<g id="grid" class="st0">
</g>
</svg>
