<?xml version="1.0" encoding="UTF-8"?>
<svg id="Icons" xmlns="http://www.w3.org/2000/svg" viewBox="0 0 400 400">
  <defs>
    <style>
      .cls-1 {
        fill: #ff8c00;
      }

      .cls-1, .cls-2 {
        stroke-width: 0px;
      }

      .cls-2 {
        fill: #7869be;
      }
    </style>
  </defs>
  <g>
    <rect class="cls-1" x="144.14" y="170.36" width="20.94" height="78.53"/>
    <circle class="cls-1" cx="154.61" cy="144.19" r="10.47"/>
    <path class="cls-1" d="M264.56,248.89h-20.94v-39.27c0-10.08-8.25-18.32-18.32-18.32s-18.32,8.25-18.32,18.32v39.27h-20.94v-78.53h20.94v9.51c6.12-5.87,14.41-9.51,23.56-9.51,18.8,0,34.03,15.24,34.03,34.03v44.5Z"/>
  </g>
  <path class="cls-2" d="M200,68.21c-72.65,0-131.79,59.13-131.79,131.79s59.13,131.79,131.79,131.79,131.79-59.13,131.79-131.79-59.13-131.79-131.79-131.79ZM200,309.82c-60.55,0-109.82-49.28-109.82-109.82s49.28-109.82,109.82-109.82,109.82,49.28,109.82,109.82-49.28,109.82-109.82,109.82Z"/>
</svg>