<?xml version="1.0" encoding="UTF-8"?>
<svg id="Icons" xmlns="http://www.w3.org/2000/svg" viewBox="0 0 400 400">
  <defs>
    <style>
      .cls-1 {
        fill: #ff8c00;
      }

      .cls-1, .cls-2 {
        stroke-width: 0px;
      }

      .cls-2 {
        fill: #7869be;
      }
    </style>
  </defs>
  <path class="cls-2" d="M252.04,73.67h-104.08c-40.78,0-74.29,33.47-74.29,74.29v104.08c0,40.78,33.47,74.29,74.29,74.29h104.08c40.78,0,74.29-33.47,74.29-74.29v-104.08c0-40.78-33.47-74.29-74.29-74.29ZM303.36,252.04c0,28.4-22.93,51.32-51.32,51.32h-104.08c-28.4,0-51.32-22.92-51.32-51.32v-104.08c0-28.4,22.93-51.32,51.32-51.32h104.08c28.4,0,51.32,22.92,51.32,51.32v104.08Z"/>
  <circle class="cls-2" cx="267.83" cy="132.17" r="10.41"/>
  <path class="cls-1" d="M200,131.09c-37.91,0-68.91,31-68.91,68.91s31,68.91,68.91,68.91,68.91-31,68.91-68.91-31-68.91-68.91-68.91ZM200,245.94c-25.53,0-45.94-20.41-45.94-45.94s20.41-45.94,45.94-45.94,45.94,20.41,45.94,45.94-20.41,45.94-45.94,45.94Z"/>
</svg>