<?xml version="1.0" encoding="UTF-8"?>
<svg id="RZ_Logo" data-name="RZ Logo" xmlns="http://www.w3.org/2000/svg" viewBox="0 0 400 400">
  <defs>
    <style>
      .cls-1 {
        fill: #ff8c00;
      }

      .cls-1, .cls-2 {
        stroke-width: 0px;
      }

      .cls-2 {
        fill: #7869be;
      }
    </style>
  </defs>
  <path class="cls-2" d="M302.36,102.7h0c-51.28-51.21-134.36-51.15-185.57.13-41.88,41.95-50.44,106.77-20.88,158.15l-18.62,67.95,69.54-18.26c19.23,10.48,40.79,15.97,62.69,15.96h.06c72.26,0,132.41-58.85,132.41-131.17-.38-34.96-14.64-68.33-39.65-92.76ZM209.59,304.54h.01c-19.54.01-38.73-5.23-55.54-15.19l-3.96-2.37-41.25,10.82,10.99-40.24-2.59-4.14c-31.31-51.57-14.89-118.76,36.68-150.07,51.57-31.31,118.76-14.89,150.07,36.68,10.15,16.72,15.63,35.86,15.86,55.42,0,60.15-50.16,109.08-110.26,109.08Z"/>
  <path class="cls-1" d="M269.39,222.88c-3.25-1.66-19.38-9.57-22.39-10.64-3.01-1.12-5.2-1.66-7.39,1.66-2.19,3.31-8.46,10.64-10.4,12.86-1.89,2.19-3.84,2.48-7.09.83-19.26-9.63-31.91-17.19-44.61-39-3.37-5.79,3.37-5.38,9.63-17.9.87-1.84.76-3.99-.29-5.73-.83-1.66-7.39-17.79-10.11-24.34-2.66-6.38-5.38-5.49-7.39-5.61-1.89-.12-4.06-.12-6.26-.12-3.35.09-6.52,1.56-8.74,4.06-7.49,7.11-11.65,17.03-11.46,27.36,0,16.13,11.76,31.73,13.36,33.92,1.66,2.19,23.1,35.28,56.01,49.51,20.8,8.98,28.95,9.75,39.35,8.21,6.32-.94,19.38-7.92,22.1-15.6,2.72-7.68,2.71-14.24,1.89-15.6-.77-1.44-2.97-2.27-6.21-3.86Z"/>
</svg>