<?xml version="1.0" encoding="UTF-8"?>
<svg id="RZ_Logo" data-name="RZ Logo" xmlns="http://www.w3.org/2000/svg" viewBox="0 0 400 400">
  <defs>
    <style>
      .cls-1 {
        fill: #ff8c00;
      }

      .cls-1, .cls-2 {
        stroke-width: 0px;
      }

      .cls-2 {
        fill: #7869be;
      }
    </style>
  </defs>
  <polygon class="cls-2" points="329.3 83.5 304.33 83.5 304.33 83.5 94.67 83.5 94.67 83.5 69.7 83.5 62.5 90.7 62.5 121.3 69.7 128.5 94.67 128.5 94.67 128.5 304.33 128.5 304.33 128.5 329.3 128.5 336.5 121.3 336.5 90.7 329.3 83.5"/>
  <polygon class="cls-1" points="329.3 177.5 304.33 177.5 304.33 177.5 94.67 177.5 94.67 177.5 69.7 177.5 62.5 184.7 62.5 215.3 69.7 222.5 94.67 222.5 94.67 222.5 304.33 222.5 304.33 222.5 329.3 222.5 336.5 215.3 336.5 184.7 329.3 177.5"/>
  <polygon class="cls-2" points="329.3 271.5 304.33 271.5 304.33 271.5 94.67 271.5 94.67 271.5 69.7 271.5 62.5 278.7 62.5 309.3 69.7 316.5 94.67 316.5 94.67 316.5 304.33 316.5 304.33 316.5 329.3 316.5 336.5 309.3 336.5 278.7 329.3 271.5"/>
</svg>