<?xml version="1.0" encoding="UTF-8"?>
<svg id="Icons" xmlns="http://www.w3.org/2000/svg" viewBox="0 0 400 400">
  <defs>
    <style>
      .cls-1 {
        fill: #ff8c00;
      }

      .cls-1, .cls-2 {
        stroke-width: 0px;
      }

      .cls-2 {
        fill: #7869be;
      }
    </style>
  </defs>
  <path class="cls-2" d="M200,68.21c-72.65,0-131.79,59.13-131.79,131.79s59.13,131.79,131.79,131.79,131.79-59.13,131.79-131.79-59.13-131.79-131.79-131.79ZM200,309.82c-60.55,0-109.82-49.28-109.82-109.82s49.28-109.82,109.82-109.82,109.82,49.28,109.82,109.82-49.28,109.82-109.82,109.82Z"/>
  <path class="cls-1" d="M181.94,179.13v21.13h-29.9v31.77h29.9v76.19c-.1.02-.18.05-.28.07,5.97,1.01,12.09,1.54,18.34,1.54,5.66,0,11.23-.43,16.66-1.26-.11-.02-.21-.04-.31-.07v-76.47h31.27l4.91-31.77h-36.19v-17.35c0-13.19,4.33-24.9,16.67-24.9h19.82v-27.71c-3.48-.47-10.85-1.5-24.77-1.5-29.08,0-46.12,15.35-46.12,50.34Z"/>
</svg>